HIERARCHY
ROOT hip
{
	OFFSET 0.000000 0.000000 0.000000 
	CHANNELS 6 Xposition Yposition Zposition Xrotation Zrotation Yrotation
	JOINT abdomen
	{
		OFFSET 0.000000 3.402643 0.000000 
		CHANNELS 3 Xrotation Zrotation Yrotation
		JOINT chest
		{
			OFFSET 0.000000 8.438565 -0.680529 
			CHANNELS 3 Xrotation Zrotation Yrotation
			JOINT neck
			{
				OFFSET 0.000000 10.207942 -0.272212 
				CHANNELS 3 Xrotation Zrotation Yrotation
				JOINT head
				{
					OFFSET 0.000000 3.130431 0.000000 
					CHANNELS 3 Xrotation Zrotation Yrotation
					End Site
					{
						OFFSET 0.000000 3.130435 0.000000 
					}
				}
			}
			JOINT lCollar
			{
				OFFSET 3.470700 6.669187 -0.816635 
				CHANNELS 3 Yrotation Zrotation Xrotation
				JOINT lShldr
				{
					OFFSET 3.198488 0.000000 0.000000 
					CHANNELS 3 Zrotation Yrotation Xrotation
					JOINT lForeArm
					{
						OFFSET 10.139888 0.000000 0.000000 
						CHANNELS 3 Yrotation Zrotation Xrotation
						JOINT lHand
						{
							OFFSET 8.370511 0.000000 0.000000 
							CHANNELS 3 Zrotation Yrotation Xrotation
							End Site
							{
								OFFSET 4.083176 0.000000 0.000000 
							}
						}
					}
				}
			}
			JOINT rCollar
			{
				OFFSET -3.470700 6.669187 -0.816635 
				CHANNELS 3 Yrotation Zrotation Xrotation
				JOINT rShldr
				{
					OFFSET -3.198488 0.000000 0.000000 
					CHANNELS 3 Zrotation Yrotation Xrotation
					JOINT rForeArm
					{
						OFFSET -10.139888 0.000000 0.000000 
						CHANNELS 3 Yrotation Zrotation Xrotation
						JOINT rHand
						{
							OFFSET -8.370511 0.000000 0.000000 
							CHANNELS 3 Zrotation Yrotation Xrotation
							End Site
							{
								OFFSET -4.083176 0.000000 0.000000 
							}
						}
					}
				}
			}
		}
	}
	JOINT lThigh
	{
		OFFSET 5.308129 -1.633274 1.361059 
		CHANNELS 3 Xrotation Zrotation Yrotation
		JOINT lShin
		{
			OFFSET -2.041588 -20.007561 0.000000 
			CHANNELS 3 Xrotation Zrotation Yrotation
			JOINT lFoot
			{
				OFFSET 0.000000 -19.190928 -1.224953 
				CHANNELS 3 Xrotation Yrotation Zrotation
				End Site
				{
					OFFSET 0.000000 -2.449906 4.627600 
				}
			}
		}
	}
	JOINT rThigh
	{
		OFFSET -5.308129 -1.633274 1.361059 
		CHANNELS 3 Xrotation Zrotation Yrotation
		JOINT rShin
		{
			OFFSET 2.041588 -20.007561 0.000000 
			CHANNELS 3 Xrotation Zrotation Yrotation
			JOINT rFoot
			{
				OFFSET 0.000000 -19.190928 -1.224953 
				CHANNELS 3 Xrotation Yrotation Zrotation
				End Site
				{
					OFFSET 0.000000 -2.449906 4.627600 
				}
			}
		}
	}
}
MOTION
Frames: 19
Frame Time: 0.033333
97.082260 37.966976 -142.548233 27.924177 12.497147 76.719643 35.219566 9.662824 7.277112 -20.839844 0.000000 0.000000 -29.837805 -11.179327 11.465826 8.603516 0.000000 0.000000 -4.754609 -0.109183 -0.002653 7.388713 21.590422 -19.403887 0.118930 -17.691402 -2.523507 22.206717 -6.942031 -19.356516 4.754609 0.109183 -0.002672 9.371518 -27.587997 -29.274799 65.969048 -8.096893 -20.377260 -14.751547 -36.878834 -20.329914 13.739366 14.560265 21.121096 44.807812 -15.391143 13.651541 0.352126 7.759766 -8.103160 -83.991005 -56.043564 17.609196 67.814056 -9.685441 6.411288 -19.559032 -3.368041 8.966097 
96.480621 38.420704 -147.143021 24.361660 14.951246 85.853722 33.133789 7.705534 3.501643 -20.839844 0.000000 0.000000 -29.415241 -7.136444 11.754530 8.603516 0.000000 0.000000 -4.754609 -0.109183 -0.002653 11.274569 22.710144 -19.912338 -3.819443 -17.267832 -2.572467 23.836323 -8.058599 -17.986546 4.754609 0.109183 -0.002672 5.818736 -33.214745 -31.218521 62.922203 -12.225468 -22.836412 -14.562703 -34.082844 -20.373875 15.190655 16.062450 21.018904 48.980904 -14.213284 10.133569 -14.079593 8.242737 -13.363959 -67.123039 -57.965691 14.064499 62.400787 -13.769017 5.765998 -26.540792 -10.272285 8.947258 
95.890961 39.418606 -151.359512 22.402365 16.562712 94.566132 32.030834 5.132328 0.042480 -20.839844 0.000000 0.000000 -29.224453 -3.372855 12.532329 8.603516 0.000000 0.000000 -4.754609 -0.109183 -0.002653 14.476693 24.785406 -18.364040 -9.259901 -16.559982 -1.918479 24.876884 -7.606133 -18.548754 4.754609 0.109183 -0.002672 0.833236 -36.852463 -33.376007 60.197105 -16.632252 -23.583677 -14.740233 -30.883766 -16.989897 14.159498 16.034754 19.218285 52.487850 -12.710975 6.710942 -23.078823 7.327024 -12.612038 -41.583279 -52.033966 7.609279 57.232216 -21.287043 4.520627 -32.506641 -18.634687 5.420989 
95.445740 41.163563 -155.293671 20.354683 17.839537 100.119011 31.533569 3.290594 -0.604451 -20.839844 0.000000 0.000000 -28.458393 -1.026589 14.260015 8.603516 0.000000 0.000000 -4.754609 -0.109183 -0.002653 15.279301 26.475473 -16.552561 -11.030062 -16.261990 -0.688906 24.237169 -7.339222 -18.930590 4.754609 0.109183 -0.002672 -4.823611 -35.990780 -36.804657 58.471127 -21.424965 -22.175489 -14.949903 -27.346943 -10.251275 14.058892 13.338589 16.173033 51.795338 -11.774014 6.598884 -25.158440 7.207903 -8.899530 -22.474976 -42.687519 3.317319 54.990658 -24.613577 3.610084 -32.301289 -21.792725 3.833002 
95.122429 43.508186 -159.059937 17.589058 18.814552 102.461349 30.961542 2.885871 1.797622 -20.839844 0.000000 0.000000 -27.305655 0.055812 16.704899 8.603516 0.000000 0.000000 -4.754609 -0.109183 -0.002653 12.826751 26.722654 -16.491682 -8.547574 -16.357555 0.851865 21.203478 -8.607227 -16.579847 4.754609 0.109183 -0.002672 -10.154799 -30.675657 -41.849724 59.687397 -26.593258 -19.021917 -13.284493 -24.399349 -3.229358 16.041828 10.194533 14.135736 46.639153 -11.801920 8.439679 -21.105314 7.156295 -7.507910 -13.581743 -35.463234 -0.343961 56.376816 -19.614292 1.401124 -30.055660 -20.261282 2.764706 
94.811111 45.996197 -162.608322 16.272173 19.627966 105.211739 30.984951 1.922055 3.923172 -20.839844 0.000000 0.000000 -26.054958 1.258773 18.716841 8.603516 0.000000 0.000000 -4.754609 -0.109183 -0.002653 8.108810 25.137850 -16.754438 -5.164366 -15.965497 3.757175 18.418550 -10.008577 -12.936145 4.754609 0.109183 -0.002672 -14.329144 -22.804338 -47.452011 63.394791 -31.042725 -14.252004 -9.696316 -22.240606 2.856036 19.320772 8.876378 15.657023 40.368649 -13.020514 9.313939 -9.326389 1.939983 -7.431188 -6.639783 -30.324005 -6.162584 56.876507 -12.604230 -0.048252 -29.181255 -15.253898 0.794555 
94.415848 48.205879 -166.085266 18.239828 20.045704 111.045280 32.486961 -1.492356 3.573988 -20.839844 0.000000 0.000000 -24.700438 2.729713 20.226568 8.603516 0.000000 0.000000 -4.754609 -0.109183 -0.002653 2.380927 21.281763 -16.505354 -3.092345 -14.807529 7.246675 17.108040 -10.808393 -10.451356 4.754609 0.109183 -0.002672 -17.430470 -14.420659 -52.559315 66.801041 -33.852142 -8.998180 -5.416831 -19.436022 8.358189 22.630939 7.871243 17.912573 35.288296 -14.982090 8.035961 8.287591 -7.394907 -4.079650 0.624723 -22.460249 -6.901955 54.752319 -9.720085 -0.922275 -26.320929 -12.928694 -0.127479 
93.904152 49.955326 -169.698593 22.195780 19.148170 119.214958 34.794502 -5.853364 1.489179 -20.839844 0.000000 0.000000 -22.395548 3.504820 22.364246 8.603516 0.000000 0.000000 -4.754609 -0.109183 -0.002653 -3.960668 15.371969 -15.928859 -2.990209 -13.214355 10.275270 16.054598 -11.365188 -9.335046 4.754609 0.109183 -0.002672 -20.355650 -5.536619 -57.363987 69.040581 -35.153957 -4.074887 -0.618977 -17.525293 13.590194 24.106703 6.240565 16.948671 32.985062 -15.734647 4.480483 22.621044 -14.506005 -0.827428 6.509782 -11.134202 0.792027 51.071007 -11.346539 -3.268378 -19.815279 -18.603312 2.247743 
93.305504 51.215580 -173.383926 25.325010 16.895733 127.881958 36.697899 -9.195146 -0.620776 -20.839844 0.000000 0.000000 -19.120039 3.954231 24.547319 8.603516 0.000000 0.000000 -4.754609 -0.109183 -0.002653 -11.082194 9.062779 -14.856666 -6.174695 -11.475838 13.321801 14.862758 -12.133983 -7.162899 4.754609 0.109183 -0.002672 -21.759327 1.555295 -59.638145 71.974945 -34.088158 0.152964 1.689790 -17.832554 16.473673 22.138027 5.918360 14.116979 35.478031 -14.183978 0.555763 25.664007 -15.987448 -2.743474 9.666377 -2.518774 7.565784 47.381229 -12.358369 -4.772198 -12.617694 -22.527683 6.784029 
92.618423 51.960636 -176.985779 26.350410 14.184887 135.740814 37.998699 -11.377839 -1.614551 -20.839844 0.000000 0.000000 -16.274733 4.490067 25.235853 8.603516 0.000000 0.000000 -4.754609 -0.109183 -0.002653 -18.398167 2.832111 -12.976603 -10.306381 -10.294456 17.475832 13.990059 -13.488585 -2.953558 4.754609 0.109183 -0.002672 -20.173750 4.268073 -57.498779 76.195480 -30.516336 3.186381 0.231319 -17.893438 16.316565 17.064953 8.202211 12.678755 40.535820 -11.752796 -1.404731 20.474678 -12.528584 -6.258873 8.250919 0.722807 7.477522 44.584152 -9.399665 -3.540830 -9.579540 -17.809139 10.296135 
91.867867 52.155025 -180.477188 26.130075 11.407285 142.563583 39.319168 -13.011302 -1.913917 -20.839844 0.000000 0.000000 -14.700616 4.744039 24.207563 8.603516 0.000000 0.000000 -4.754609 -0.109183 -0.002653 -25.671822 -2.220000 -9.748318 -14.214994 -10.118876 22.330517 14.038232 -15.213433 0.798263 4.754609 0.109183 -0.002672 -17.014059 6.101436 -54.527176 79.517883 -26.910528 5.503579 -0.794042 -16.499454 16.272612 10.497263 12.538757 14.118045 44.326260 -10.552860 -2.176269 12.113605 -9.946252 -6.756091 4.468340 0.302772 3.960537 42.699604 -4.458813 -1.007687 -9.550357 -10.091410 14.755078 
91.102829 51.802738 -183.929657 25.538231 8.411057 148.930740 41.094963 -14.319535 -2.528139 -20.839844 0.000000 0.000000 -14.319538 4.662017 22.260214 8.603516 0.000000 0.000000 -4.754609 -0.109183 -0.002653 -33.629971 -4.758006 -5.745881 -17.343412 -10.020585 26.561375 14.628901 -16.299120 3.510389 4.754609 0.109183 -0.002672 -12.838771 9.048545 -52.296898 81.082268 -24.300890 7.665631 0.273695 -15.265293 17.702250 3.257737 17.071749 16.822939 45.828728 -11.128531 -2.477595 3.150257 -10.091586 -5.327093 1.166630 -1.350499 0.899344 41.149807 -0.475195 0.905224 -9.276006 -4.722712 19.881432 
90.380257 50.897274 -187.468033 24.663515 5.532582 154.888794 42.844440 -15.097105 -3.130292 -20.839844 0.000000 0.000000 -14.310873 4.407700 20.098322 8.603516 0.000000 0.000000 -4.754609 -0.109183 -0.002653 -42.074791 -4.588950 -2.151345 -18.729994 -10.000411 29.838224 15.357315 -16.411327 5.904333 4.754609 0.109183 -0.002672 -7.687866 11.316848 -49.015167 81.618530 -21.093761 9.421067 0.658779 -15.342203 19.214638 -4.102170 20.638926 19.345110 46.015877 -12.925381 -2.017747 -5.757955 -11.184442 -4.760888 -0.488038 -2.165758 -0.161458 39.451530 1.132893 1.636168 -7.095123 -2.382600 21.989176 
89.742630 49.354191 -191.291275 24.009512 3.390644 160.093277 44.196667 -15.400118 -2.908425 -20.839844 0.000000 0.000000 -13.613827 3.899670 17.965929 8.603516 0.000000 0.000000 -4.754609 -0.109183 -0.002653 -49.851482 -2.441290 0.649437 -17.630754 -10.293182 32.509598 15.966192 -16.712006 7.434660 4.754609 0.109183 -0.002672 -1.581440 12.492599 -43.988453 82.017838 -16.442032 10.779789 -0.791525 -16.043802 20.152681 -9.257905 23.707663 22.928179 45.315399 -16.037685 -0.953373 -14.097709 -13.300341 -6.668628 0.156542 -1.705554 0.196776 39.273975 1.136358 1.152251 -6.501990 -2.782946 18.218082 
89.130501 47.115532 -195.540237 24.218679 2.226756 164.829391 45.232216 -15.033617 -1.334499 -20.839844 0.000000 0.000000 -12.351808 2.904780 15.966235 8.603516 0.000000 0.000000 -4.754609 -0.109183 -0.002653 -56.848297 1.437010 2.247075 -14.767535 -9.983550 34.411739 16.122948 -17.654345 8.129386 4.754609 0.109183 -0.002672 5.365850 12.817307 -37.803383 82.022369 -10.828883 12.382874 -2.655338 -15.787576 21.419323 -11.064701 25.917419 26.225609 44.347969 -20.021376 -0.944893 -22.022511 -16.028076 -10.834591 2.625625 -1.307930 0.195234 44.139229 2.043710 -1.096369 -14.063023 -5.463991 6.732804 
88.396439 44.443127 -200.088043 24.971722 2.248836 169.338272 45.679142 -13.201079 2.291478 -20.839844 0.000000 0.000000 -11.389496 1.411785 14.643099 8.603516 0.000000 0.000000 -4.754609 -0.109183 -0.002653 -63.014397 6.608140 2.216217 -10.651221 -9.170425 34.557125 16.174910 -17.968407 7.545780 4.754609 0.109183 -0.002672 12.727692 12.080528 -31.430967 80.853813 -5.381540 14.329425 -4.160311 -14.289027 23.290131 -12.012086 26.328615 26.827431 45.398643 -21.042482 0.092535 -25.066706 -14.651924 -10.312649 5.805198 -2.810097 -2.069051 54.025764 4.705106 -2.494633 -26.153259 -5.729854 -1.680666 
87.515953 41.912621 -204.399979 -154.606598 177.679504 -6.164250 45.437832 -10.518082 6.279932 -20.839844 0.000000 0.000000 -12.127072 0.328216 14.906132 8.603516 0.000000 0.000000 -4.754609 -0.109183 -0.002653 -66.871811 13.078718 -0.359537 -6.523100 -9.247207 32.162918 16.494177 -16.957638 5.837878 4.754609 0.109183 -0.002672 21.121794 10.506375 -25.627789 78.396591 -1.145589 15.922803 -5.754607 -12.861066 24.651506 -16.804394 22.795120 20.843143 50.143627 -16.720093 1.558423 -21.005854 -7.970159 -2.577008 6.103264 -6.591976 -5.387291 67.634804 5.607298 -0.254719 -22.923626 -4.434287 1.276904 
86.705437 39.663471 -207.708008 -155.321945 179.716049 -0.455417 46.106747 -9.378690 7.012433 -20.839844 0.000000 0.000000 -16.542416 0.374660 17.334314 8.603516 0.000000 0.000000 -4.754609 -0.109183 -0.002653 -67.592903 19.527403 -3.762364 -4.715873 -7.626970 27.766554 15.320027 -15.083288 2.558334 4.754609 0.109183 -0.002672 31.265238 8.354634 -21.121420 74.993553 0.673767 17.113188 -6.525219 -12.010552 25.759602 -25.356947 13.873316 11.086236 58.475388 -11.135592 2.014156 -12.757377 -0.144334 6.043826 -1.660500 -11.765411 -6.896794 85.385025 2.839751 4.037388 -6.788244 -0.258780 1.283604 
86.296677 37.646656 -210.085587 -157.026138 -177.419266 6.318331 48.846043 -9.997530 6.158743 -20.839844 0.000000 0.000000 -23.016001 1.092595 21.129738 8.603516 0.000000 0.000000 -4.754609 -0.109183 -0.002653 -65.350868 17.465179 -4.321288 1.583864 -4.142190 22.530308 12.279902 -12.149127 -2.248736 4.754609 0.109183 -0.002672 41.848568 5.420284 -17.072523 71.761467 2.241097 17.411800 -6.589615 -12.481748 25.315031 -33.343533 4.803401 5.135755 68.791382 -7.514622 1.673111 -11.378971 3.973183 9.359844 -17.291000 -15.005960 -4.281306 102.740540 -2.177672 4.471351 2.353401 1.250560 -3.462249 
